<?xml version="1.0" standalone="no"?>
<!DOCTYPE svg PUBLIC "-//W3C//DTD SVG 20010904//EN"
 "http://www.w3.org/TR/2001/REC-SVG-20010904/DTD/svg10.dtd">
<svg version="1.0" xmlns="http://www.w3.org/2000/svg"
 width="531.000000pt" height="531.000000pt" viewBox="0 0 531.000000 531.000000"
 preserveAspectRatio="xMidYMid meet">
<metadata>
Created by potrace 1.11, written by Peter Selinger 2001-2013
</metadata>
<g transform="translate(0.000000,531.000000) scale(0.100000,-0.100000)"
fill="#000000" stroke="none">
<path d="M2470 4399 c-36 -4 -78 -10 -95 -13 -16 -3 -46 -8 -65 -11 -164 -27
-452 -150 -583 -249 -244 -185 -392 -361 -510 -606 -45 -95 -93 -217 -103
-265 -1 -5 -9 -39 -17 -75 -9 -36 -19 -92 -23 -125 -3 -33 -8 -69 -10 -80 -6
-26 -5 -253 0 -285 2 -14 7 -47 10 -75 25 -202 104 -424 215 -609 309 -511
877 -802 1471 -753 87 8 126 13 170 23 14 3 34 8 45 10 34 6 178 51 216 67 41
17 32 27 109 -118 24 -44 55 -102 70 -130 79 -142 148 -271 198 -365 30 -58
58 -109 62 -115 9 -12 58 -102 95 -173 44 -85 40 -53 -10 69 -26 63 -59 148
-75 189 -16 41 -85 218 -154 394 -69 175 -126 320 -126 321 0 2 25 18 56 35
135 78 322 241 426 371 142 178 245 388 299 609 37 153 40 181 44 345 4 159
-4 146 108 159 30 4 64 8 74 10 11 3 44 7 74 11 30 3 61 8 69 10 8 2 40 7 70
10 30 3 68 8 83 11 31 6 40 8 132 19 33 4 62 9 64 11 4 4 -282 5 -1649 5
l-486 1 -29 76 c-16 42 -39 101 -52 130 l-23 54 -37 -20 c-21 -11 -58 -29 -83
-40 -228 -104 -222 -101 -214 -125 4 -12 13 -31 20 -42 21 -30 18 -32 -43 -32
l-58 1 1 -35 c2 -57 19 -310 23 -342 1 -5 9 -6 19 -3 9 2 40 7 67 11 28 3 81
10 119 16 38 5 73 6 77 2 7 -8 75 -130 151 -273 25 -47 57 -105 70 -130 77
-139 202 -369 260 -478 28 -53 55 -102 60 -109 12 -15 -9 -26 -102 -51 -236
-64 -476 -58 -702 18 -224 75 -396 195 -568 396 -120 139 -224 375 -258 584
-9 58 -9 309 0 380 32 244 159 491 348 680 227 227 517 351 830 353 265 3 471
-59 705 -212 94 -61 258 -228 320 -324 58 -90 31 -87 250 -35 165 39 162 35
89 157 -256 421 -668 690 -1159 757 -71 9 -258 11 -335 3z m1364 -1630 c-3
-234 -90 -482 -238 -682 -56 -76 -148 -173 -205 -217 -18 -14 -45 -34 -59 -46
-49 -38 -100 -65 -106 -56 -7 11 -117 282 -120 297 -2 6 -8 24 -15 40 -6 17
-30 77 -53 135 -23 58 -47 119 -54 135 -18 44 -98 249 -100 255 0 3 -6 17 -12
33 -34 79 -34 75 6 81 20 3 53 8 72 11 19 2 87 12 150 21 63 9 126 17 140 19
14 1 44 6 68 10 23 4 52 8 65 10 87 10 145 18 162 21 10 2 37 6 60 9 22 3 51
8 65 10 14 2 52 7 85 11 33 3 62 8 64 10 3 3 10 3 15 1 7 -3 10 -42 10 -108z"/>
</g>
</svg>
